<mxfile host="app.diagrams.net" modified="2022-12-17T18:59:13.187Z" agent="5.0 (Windows NT 10.0; Win64; x64) AppleWebKit/537.36 (KHTML, like Gecko) Chrome/107.0.0.0 Safari/537.36" etag="qEfg1avg7I1C7vxlEAog" version="20.7.4" type="github">
  <diagram id="C5RBs43oDa-KdzZeNtuy" name="Page-1">
    <mxGraphModel dx="1050" dy="1668" grid="1" gridSize="10" guides="1" tooltips="1" connect="1" arrows="1" fold="1" page="1" pageScale="1" pageWidth="827" pageHeight="1169" math="0" shadow="0">
      <root>
        <mxCell id="WIyWlLk6GJQsqaUBKTNV-0" />
        <mxCell id="WIyWlLk6GJQsqaUBKTNV-1" parent="WIyWlLk6GJQsqaUBKTNV-0" />
        <mxCell id="WIyWlLk6GJQsqaUBKTNV-7" value="clear order in localStorage" style="rounded=1;whiteSpace=wrap;html=1;fontSize=12;glass=0;strokeWidth=1;shadow=0;" parent="WIyWlLk6GJQsqaUBKTNV-1" vertex="1">
          <mxGeometry x="420" y="-20" width="120" height="40" as="geometry" />
        </mxCell>
        <mxCell id="u-CSctKQ3wjPRd8Vw4VA-144" style="edgeStyle=orthogonalEdgeStyle;rounded=0;orthogonalLoop=1;jettySize=auto;html=1;exitX=0.5;exitY=1;exitDx=0;exitDy=0;entryX=0.5;entryY=0;entryDx=0;entryDy=0;" edge="1" parent="WIyWlLk6GJQsqaUBKTNV-1" source="WIyWlLk6GJQsqaUBKTNV-11" target="u-CSctKQ3wjPRd8Vw4VA-142">
          <mxGeometry relative="1" as="geometry" />
        </mxCell>
        <mxCell id="WIyWlLk6GJQsqaUBKTNV-11" value="add to card" style="rounded=1;whiteSpace=wrap;html=1;fontSize=12;glass=0;strokeWidth=1;shadow=0;" parent="WIyWlLk6GJQsqaUBKTNV-1" vertex="1">
          <mxGeometry x="240" y="220" width="120" height="40" as="geometry" />
        </mxCell>
        <mxCell id="u-CSctKQ3wjPRd8Vw4VA-103" style="edgeStyle=orthogonalEdgeStyle;rounded=0;orthogonalLoop=1;jettySize=auto;html=1;entryX=0.5;entryY=0;entryDx=0;entryDy=0;" edge="1" parent="WIyWlLk6GJQsqaUBKTNV-1" source="u-CSctKQ3wjPRd8Vw4VA-0" target="u-CSctKQ3wjPRd8Vw4VA-102">
          <mxGeometry relative="1" as="geometry" />
        </mxCell>
        <mxCell id="u-CSctKQ3wjPRd8Vw4VA-108" style="edgeStyle=orthogonalEdgeStyle;rounded=0;orthogonalLoop=1;jettySize=auto;html=1;" edge="1" parent="WIyWlLk6GJQsqaUBKTNV-1" source="u-CSctKQ3wjPRd8Vw4VA-0" target="u-CSctKQ3wjPRd8Vw4VA-11">
          <mxGeometry relative="1" as="geometry" />
        </mxCell>
        <mxCell id="u-CSctKQ3wjPRd8Vw4VA-0" value="" style="shape=waypoint;sketch=0;size=6;pointerEvents=1;points=[];fillColor=default;resizable=0;rotatable=0;perimeter=centerPerimeter;snapToPoint=1;rounded=1;glass=0;strokeWidth=1;shadow=0;" vertex="1" parent="WIyWlLk6GJQsqaUBKTNV-1">
          <mxGeometry x="285" y="-160" width="40" height="40" as="geometry" />
        </mxCell>
        <mxCell id="u-CSctKQ3wjPRd8Vw4VA-132" value="" style="edgeStyle=orthogonalEdgeStyle;rounded=0;orthogonalLoop=1;jettySize=auto;html=1;" edge="1" parent="WIyWlLk6GJQsqaUBKTNV-1" source="u-CSctKQ3wjPRd8Vw4VA-8" target="u-CSctKQ3wjPRd8Vw4VA-131">
          <mxGeometry x="-0.8561" y="-39" relative="1" as="geometry">
            <Array as="points">
              <mxPoint x="250" y="480" />
            </Array>
            <mxPoint as="offset" />
          </mxGeometry>
        </mxCell>
        <mxCell id="u-CSctKQ3wjPRd8Vw4VA-146" style="edgeStyle=orthogonalEdgeStyle;rounded=0;orthogonalLoop=1;jettySize=auto;html=1;entryX=0.5;entryY=0;entryDx=0;entryDy=0;" edge="1" parent="WIyWlLk6GJQsqaUBKTNV-1" source="u-CSctKQ3wjPRd8Vw4VA-8" target="u-CSctKQ3wjPRd8Vw4VA-145">
          <mxGeometry relative="1" as="geometry" />
        </mxCell>
        <mxCell id="u-CSctKQ3wjPRd8Vw4VA-8" value="order" style="rounded=1;whiteSpace=wrap;html=1;fontSize=12;glass=0;strokeWidth=1;shadow=0;" vertex="1" parent="WIyWlLk6GJQsqaUBKTNV-1">
          <mxGeometry x="240" y="499" width="120" height="40" as="geometry" />
        </mxCell>
        <mxCell id="u-CSctKQ3wjPRd8Vw4VA-26" style="edgeStyle=orthogonalEdgeStyle;rounded=0;orthogonalLoop=1;jettySize=auto;html=1;entryX=0;entryY=0.5;entryDx=0;entryDy=0;" edge="1" parent="WIyWlLk6GJQsqaUBKTNV-1" source="u-CSctKQ3wjPRd8Vw4VA-10" target="u-CSctKQ3wjPRd8Vw4VA-27">
          <mxGeometry relative="1" as="geometry">
            <mxPoint x="460" y="405" as="targetPoint" />
          </mxGeometry>
        </mxCell>
        <mxCell id="u-CSctKQ3wjPRd8Vw4VA-45" style="edgeStyle=orthogonalEdgeStyle;rounded=0;orthogonalLoop=1;jettySize=auto;html=1;entryX=0.5;entryY=0;entryDx=0;entryDy=0;" edge="1" parent="WIyWlLk6GJQsqaUBKTNV-1" source="u-CSctKQ3wjPRd8Vw4VA-10" target="u-CSctKQ3wjPRd8Vw4VA-8">
          <mxGeometry relative="1" as="geometry" />
        </mxCell>
        <mxCell id="u-CSctKQ3wjPRd8Vw4VA-10" value="connected" style="rhombus;whiteSpace=wrap;html=1;" vertex="1" parent="WIyWlLk6GJQsqaUBKTNV-1">
          <mxGeometry x="260" y="385" width="80" height="70" as="geometry" />
        </mxCell>
        <mxCell id="u-CSctKQ3wjPRd8Vw4VA-14" style="edgeStyle=orthogonalEdgeStyle;rounded=0;orthogonalLoop=1;jettySize=auto;html=1;" edge="1" parent="WIyWlLk6GJQsqaUBKTNV-1" source="u-CSctKQ3wjPRd8Vw4VA-11" target="u-CSctKQ3wjPRd8Vw4VA-15">
          <mxGeometry relative="1" as="geometry">
            <mxPoint x="140" y="70" as="targetPoint" />
          </mxGeometry>
        </mxCell>
        <mxCell id="u-CSctKQ3wjPRd8Vw4VA-11" value="identification" style="whiteSpace=wrap;html=1;sketch=0;rounded=1;glass=0;strokeWidth=1;shadow=0;" vertex="1" parent="WIyWlLk6GJQsqaUBKTNV-1">
          <mxGeometry x="90" y="-30" width="100" height="40" as="geometry" />
        </mxCell>
        <mxCell id="u-CSctKQ3wjPRd8Vw4VA-87" style="edgeStyle=orthogonalEdgeStyle;rounded=0;orthogonalLoop=1;jettySize=auto;html=1;" edge="1" parent="WIyWlLk6GJQsqaUBKTNV-1" source="u-CSctKQ3wjPRd8Vw4VA-15">
          <mxGeometry relative="1" as="geometry">
            <mxPoint x="90" y="20" as="targetPoint" />
          </mxGeometry>
        </mxCell>
        <mxCell id="u-CSctKQ3wjPRd8Vw4VA-111" style="edgeStyle=orthogonalEdgeStyle;rounded=0;orthogonalLoop=1;jettySize=auto;html=1;entryX=0.5;entryY=0;entryDx=0;entryDy=0;" edge="1" parent="WIyWlLk6GJQsqaUBKTNV-1" source="u-CSctKQ3wjPRd8Vw4VA-15" target="WIyWlLk6GJQsqaUBKTNV-3">
          <mxGeometry relative="1" as="geometry" />
        </mxCell>
        <mxCell id="u-CSctKQ3wjPRd8Vw4VA-15" value="" style="rhombus;whiteSpace=wrap;html=1;sketch=0;rounded=1;glass=0;strokeWidth=1;shadow=0;" vertex="1" parent="WIyWlLk6GJQsqaUBKTNV-1">
          <mxGeometry x="120" y="50" width="40" height="40" as="geometry" />
        </mxCell>
        <mxCell id="u-CSctKQ3wjPRd8Vw4VA-21" value="not valid" style="text;html=1;align=center;verticalAlign=middle;resizable=0;points=[];autosize=1;strokeColor=none;fillColor=none;" vertex="1" parent="WIyWlLk6GJQsqaUBKTNV-1">
          <mxGeometry x="20" y="30" width="70" height="30" as="geometry" />
        </mxCell>
        <mxCell id="u-CSctKQ3wjPRd8Vw4VA-23" value="Coef" style="text;html=1;align=center;verticalAlign=middle;resizable=0;points=[];autosize=1;strokeColor=none;fillColor=none;" vertex="1" parent="WIyWlLk6GJQsqaUBKTNV-1">
          <mxGeometry x="190" y="40" width="50" height="30" as="geometry" />
        </mxCell>
        <mxCell id="u-CSctKQ3wjPRd8Vw4VA-30" style="edgeStyle=orthogonalEdgeStyle;rounded=0;orthogonalLoop=1;jettySize=auto;html=1;entryX=0.5;entryY=0;entryDx=0;entryDy=0;" edge="1" parent="WIyWlLk6GJQsqaUBKTNV-1" target="u-CSctKQ3wjPRd8Vw4VA-32">
          <mxGeometry relative="1" as="geometry">
            <mxPoint x="599.5" y="425" as="sourcePoint" />
            <mxPoint x="599.5" y="470" as="targetPoint" />
          </mxGeometry>
        </mxCell>
        <mxCell id="u-CSctKQ3wjPRd8Vw4VA-27" value="identification" style="rounded=1;whiteSpace=wrap;html=1;fontSize=12;glass=0;strokeWidth=1;shadow=0;" vertex="1" parent="WIyWlLk6GJQsqaUBKTNV-1">
          <mxGeometry x="540" y="400" width="120" height="40" as="geometry" />
        </mxCell>
        <mxCell id="u-CSctKQ3wjPRd8Vw4VA-28" value="No" style="text;html=1;align=center;verticalAlign=middle;resizable=0;points=[];autosize=1;strokeColor=none;fillColor=none;" vertex="1" parent="WIyWlLk6GJQsqaUBKTNV-1">
          <mxGeometry x="410" y="385" width="40" height="30" as="geometry" />
        </mxCell>
        <mxCell id="u-CSctKQ3wjPRd8Vw4VA-34" style="edgeStyle=orthogonalEdgeStyle;rounded=0;orthogonalLoop=1;jettySize=auto;html=1;entryX=1;entryY=1;entryDx=0;entryDy=0;" edge="1" parent="WIyWlLk6GJQsqaUBKTNV-1" source="u-CSctKQ3wjPRd8Vw4VA-32" target="u-CSctKQ3wjPRd8Vw4VA-27">
          <mxGeometry x="1" y="20" relative="1" as="geometry">
            <mxPoint x="660" y="460" as="targetPoint" />
            <Array as="points">
              <mxPoint x="660" y="520" />
            </Array>
            <mxPoint x="20" y="-20" as="offset" />
          </mxGeometry>
        </mxCell>
        <mxCell id="u-CSctKQ3wjPRd8Vw4VA-51" style="edgeStyle=orthogonalEdgeStyle;rounded=0;orthogonalLoop=1;jettySize=auto;html=1;" edge="1" parent="WIyWlLk6GJQsqaUBKTNV-1" source="u-CSctKQ3wjPRd8Vw4VA-32">
          <mxGeometry relative="1" as="geometry">
            <mxPoint x="360" y="520" as="targetPoint" />
            <Array as="points">
              <mxPoint x="360" y="520" />
              <mxPoint x="360" y="520" />
            </Array>
          </mxGeometry>
        </mxCell>
        <mxCell id="u-CSctKQ3wjPRd8Vw4VA-32" value="" style="rhombus;whiteSpace=wrap;html=1;" vertex="1" parent="WIyWlLk6GJQsqaUBKTNV-1">
          <mxGeometry x="580" y="500" width="40" height="40" as="geometry" />
        </mxCell>
        <mxCell id="u-CSctKQ3wjPRd8Vw4VA-36" value="&lt;span style=&quot;color: rgb(0, 0, 0); font-family: Helvetica; font-size: 12px; font-style: normal; font-variant-ligatures: normal; font-variant-caps: normal; font-weight: 400; letter-spacing: normal; orphans: 2; text-align: center; text-indent: 0px; text-transform: none; widows: 2; word-spacing: 0px; -webkit-text-stroke-width: 0px; background-color: rgb(251, 251, 251); text-decoration-thickness: initial; text-decoration-style: initial; text-decoration-color: initial; float: none; display: inline !important;&quot;&gt;not valid&lt;/span&gt;" style="text;whiteSpace=wrap;html=1;" vertex="1" parent="WIyWlLk6GJQsqaUBKTNV-1">
          <mxGeometry x="660" y="450" width="50" height="30" as="geometry" />
        </mxCell>
        <mxCell id="u-CSctKQ3wjPRd8Vw4VA-52" value="Coef" style="text;html=1;align=center;verticalAlign=middle;resizable=0;points=[];autosize=1;strokeColor=none;fillColor=none;" vertex="1" parent="WIyWlLk6GJQsqaUBKTNV-1">
          <mxGeometry x="454" y="491" width="50" height="30" as="geometry" />
        </mxCell>
        <mxCell id="u-CSctKQ3wjPRd8Vw4VA-58" style="edgeStyle=orthogonalEdgeStyle;rounded=0;orthogonalLoop=1;jettySize=auto;html=1;entryX=0.5;entryY=0;entryDx=0;entryDy=0;" edge="1" parent="WIyWlLk6GJQsqaUBKTNV-1" source="u-CSctKQ3wjPRd8Vw4VA-53" target="u-CSctKQ3wjPRd8Vw4VA-57">
          <mxGeometry relative="1" as="geometry" />
        </mxCell>
        <mxCell id="u-CSctKQ3wjPRd8Vw4VA-134" style="edgeStyle=orthogonalEdgeStyle;rounded=0;orthogonalLoop=1;jettySize=auto;html=1;entryX=0.5;entryY=1;entryDx=0;entryDy=0;" edge="1" parent="WIyWlLk6GJQsqaUBKTNV-1" source="u-CSctKQ3wjPRd8Vw4VA-53" target="u-CSctKQ3wjPRd8Vw4VA-131">
          <mxGeometry x="0.0131" y="70" relative="1" as="geometry">
            <mxPoint as="offset" />
          </mxGeometry>
        </mxCell>
        <mxCell id="u-CSctKQ3wjPRd8Vw4VA-136" style="edgeStyle=orthogonalEdgeStyle;rounded=0;orthogonalLoop=1;jettySize=auto;html=1;" edge="1" parent="WIyWlLk6GJQsqaUBKTNV-1" source="u-CSctKQ3wjPRd8Vw4VA-53" target="u-CSctKQ3wjPRd8Vw4VA-135">
          <mxGeometry relative="1" as="geometry" />
        </mxCell>
        <mxCell id="u-CSctKQ3wjPRd8Vw4VA-53" value="samury" style="rounded=1;whiteSpace=wrap;html=1;fontSize=12;glass=0;strokeWidth=1;shadow=0;" vertex="1" parent="WIyWlLk6GJQsqaUBKTNV-1">
          <mxGeometry x="240" y="695" width="120" height="40" as="geometry" />
        </mxCell>
        <mxCell id="u-CSctKQ3wjPRd8Vw4VA-62" value="" style="edgeStyle=orthogonalEdgeStyle;rounded=0;orthogonalLoop=1;jettySize=auto;html=1;" edge="1" parent="WIyWlLk6GJQsqaUBKTNV-1" source="u-CSctKQ3wjPRd8Vw4VA-57" target="u-CSctKQ3wjPRd8Vw4VA-61">
          <mxGeometry relative="1" as="geometry" />
        </mxCell>
        <mxCell id="u-CSctKQ3wjPRd8Vw4VA-64" value="" style="edgeStyle=orthogonalEdgeStyle;rounded=0;orthogonalLoop=1;jettySize=auto;html=1;" edge="1" parent="WIyWlLk6GJQsqaUBKTNV-1" source="u-CSctKQ3wjPRd8Vw4VA-57" target="u-CSctKQ3wjPRd8Vw4VA-63">
          <mxGeometry relative="1" as="geometry" />
        </mxCell>
        <mxCell id="u-CSctKQ3wjPRd8Vw4VA-57" value="private" style="rhombus;whiteSpace=wrap;html=1;rounded=1;glass=0;strokeWidth=1;shadow=0;" vertex="1" parent="WIyWlLk6GJQsqaUBKTNV-1">
          <mxGeometry x="260" y="786" width="80" height="80" as="geometry" />
        </mxCell>
        <mxCell id="u-CSctKQ3wjPRd8Vw4VA-65" style="edgeStyle=orthogonalEdgeStyle;rounded=0;orthogonalLoop=1;jettySize=auto;html=1;entryX=1;entryY=0.75;entryDx=0;entryDy=0;" edge="1" parent="WIyWlLk6GJQsqaUBKTNV-1" source="u-CSctKQ3wjPRd8Vw4VA-61" target="u-CSctKQ3wjPRd8Vw4VA-63">
          <mxGeometry relative="1" as="geometry">
            <Array as="points">
              <mxPoint x="460" y="1001" />
            </Array>
          </mxGeometry>
        </mxCell>
        <mxCell id="u-CSctKQ3wjPRd8Vw4VA-61" value="payment" style="whiteSpace=wrap;html=1;rounded=1;glass=0;strokeWidth=1;shadow=0;" vertex="1" parent="WIyWlLk6GJQsqaUBKTNV-1">
          <mxGeometry x="400" y="796" width="120" height="60" as="geometry" />
        </mxCell>
        <mxCell id="u-CSctKQ3wjPRd8Vw4VA-152" value="" style="edgeStyle=orthogonalEdgeStyle;rounded=0;orthogonalLoop=1;jettySize=auto;html=1;" edge="1" parent="WIyWlLk6GJQsqaUBKTNV-1" source="u-CSctKQ3wjPRd8Vw4VA-63" target="u-CSctKQ3wjPRd8Vw4VA-151">
          <mxGeometry relative="1" as="geometry" />
        </mxCell>
        <mxCell id="u-CSctKQ3wjPRd8Vw4VA-63" value="validation" style="whiteSpace=wrap;html=1;rounded=1;glass=0;strokeWidth=1;shadow=0;" vertex="1" parent="WIyWlLk6GJQsqaUBKTNV-1">
          <mxGeometry x="240" y="956" width="120" height="60" as="geometry" />
        </mxCell>
        <mxCell id="u-CSctKQ3wjPRd8Vw4VA-72" value="yes" style="text;html=1;align=center;verticalAlign=middle;resizable=0;points=[];autosize=1;strokeColor=none;fillColor=none;" vertex="1" parent="WIyWlLk6GJQsqaUBKTNV-1">
          <mxGeometry x="344" y="794" width="40" height="30" as="geometry" />
        </mxCell>
        <mxCell id="u-CSctKQ3wjPRd8Vw4VA-73" value="No" style="text;html=1;align=center;verticalAlign=middle;resizable=0;points=[];autosize=1;strokeColor=none;fillColor=none;" vertex="1" parent="WIyWlLk6GJQsqaUBKTNV-1">
          <mxGeometry x="257" y="887" width="40" height="30" as="geometry" />
        </mxCell>
        <mxCell id="u-CSctKQ3wjPRd8Vw4VA-113" style="edgeStyle=orthogonalEdgeStyle;rounded=0;orthogonalLoop=1;jettySize=auto;html=1;entryX=0.5;entryY=0;entryDx=0;entryDy=0;" edge="1" parent="WIyWlLk6GJQsqaUBKTNV-1" source="WIyWlLk6GJQsqaUBKTNV-3" target="WIyWlLk6GJQsqaUBKTNV-11">
          <mxGeometry relative="1" as="geometry" />
        </mxCell>
        <mxCell id="WIyWlLk6GJQsqaUBKTNV-3" value="check catalogue" style="rounded=1;whiteSpace=wrap;html=1;fontSize=12;glass=0;strokeWidth=1;shadow=0;" parent="WIyWlLk6GJQsqaUBKTNV-1" vertex="1">
          <mxGeometry x="240" y="160" width="120" height="40" as="geometry" />
        </mxCell>
        <mxCell id="u-CSctKQ3wjPRd8Vw4VA-99" value="yes" style="text;html=1;align=center;verticalAlign=middle;resizable=0;points=[];autosize=1;strokeColor=none;fillColor=none;" vertex="1" parent="WIyWlLk6GJQsqaUBKTNV-1">
          <mxGeometry x="270" y="445" width="40" height="30" as="geometry" />
        </mxCell>
        <mxCell id="u-CSctKQ3wjPRd8Vw4VA-104" style="edgeStyle=orthogonalEdgeStyle;rounded=0;orthogonalLoop=1;jettySize=auto;html=1;" edge="1" parent="WIyWlLk6GJQsqaUBKTNV-1" source="u-CSctKQ3wjPRd8Vw4VA-102" target="WIyWlLk6GJQsqaUBKTNV-3">
          <mxGeometry relative="1" as="geometry">
            <Array as="points">
              <mxPoint x="305" y="120" />
              <mxPoint x="305" y="120" />
            </Array>
          </mxGeometry>
        </mxCell>
        <mxCell id="u-CSctKQ3wjPRd8Vw4VA-109" style="edgeStyle=orthogonalEdgeStyle;rounded=0;orthogonalLoop=1;jettySize=auto;html=1;" edge="1" parent="WIyWlLk6GJQsqaUBKTNV-1" source="u-CSctKQ3wjPRd8Vw4VA-102" target="WIyWlLk6GJQsqaUBKTNV-7">
          <mxGeometry relative="1" as="geometry" />
        </mxCell>
        <mxCell id="u-CSctKQ3wjPRd8Vw4VA-102" value="Not&lt;br&gt;connected" style="rhombus;whiteSpace=wrap;html=1;sketch=0;rounded=1;glass=0;strokeWidth=1;shadow=0;" vertex="1" parent="WIyWlLk6GJQsqaUBKTNV-1">
          <mxGeometry x="265" y="-40" width="80" height="80" as="geometry" />
        </mxCell>
        <mxCell id="u-CSctKQ3wjPRd8Vw4VA-133" style="edgeStyle=orthogonalEdgeStyle;rounded=0;orthogonalLoop=1;jettySize=auto;html=1;entryX=0;entryY=0.75;entryDx=0;entryDy=0;" edge="1" parent="WIyWlLk6GJQsqaUBKTNV-1" source="u-CSctKQ3wjPRd8Vw4VA-131" target="WIyWlLk6GJQsqaUBKTNV-3">
          <mxGeometry relative="1" as="geometry">
            <Array as="points">
              <mxPoint x="70" y="190" />
            </Array>
          </mxGeometry>
        </mxCell>
        <mxCell id="u-CSctKQ3wjPRd8Vw4VA-131" value="clear card in&amp;nbsp;&lt;br&gt;localstorage" style="whiteSpace=wrap;html=1;rounded=1;glass=0;strokeWidth=1;shadow=0;" vertex="1" parent="WIyWlLk6GJQsqaUBKTNV-1">
          <mxGeometry x="20" y="450" width="120" height="60" as="geometry" />
        </mxCell>
        <mxCell id="u-CSctKQ3wjPRd8Vw4VA-138" style="edgeStyle=orthogonalEdgeStyle;rounded=0;orthogonalLoop=1;jettySize=auto;html=1;entryX=1;entryY=0.75;entryDx=0;entryDy=0;" edge="1" parent="WIyWlLk6GJQsqaUBKTNV-1" source="u-CSctKQ3wjPRd8Vw4VA-135" target="u-CSctKQ3wjPRd8Vw4VA-8">
          <mxGeometry relative="1" as="geometry">
            <Array as="points">
              <mxPoint x="560" y="529" />
            </Array>
          </mxGeometry>
        </mxCell>
        <mxCell id="u-CSctKQ3wjPRd8Vw4VA-135" value="clear order in&lt;br&gt;localstorage" style="rounded=1;whiteSpace=wrap;html=1;fontSize=12;glass=0;strokeWidth=1;shadow=0;" vertex="1" parent="WIyWlLk6GJQsqaUBKTNV-1">
          <mxGeometry x="504" y="590" width="120" height="40" as="geometry" />
        </mxCell>
        <mxCell id="u-CSctKQ3wjPRd8Vw4VA-143" style="edgeStyle=orthogonalEdgeStyle;rounded=0;orthogonalLoop=1;jettySize=auto;html=1;entryX=0.5;entryY=0;entryDx=0;entryDy=0;" edge="1" parent="WIyWlLk6GJQsqaUBKTNV-1" source="u-CSctKQ3wjPRd8Vw4VA-142" target="u-CSctKQ3wjPRd8Vw4VA-10">
          <mxGeometry relative="1" as="geometry" />
        </mxCell>
        <mxCell id="u-CSctKQ3wjPRd8Vw4VA-142" value="save card in localstorage" style="rhombus;whiteSpace=wrap;html=1;rounded=1;glass=0;strokeWidth=1;shadow=0;" vertex="1" parent="WIyWlLk6GJQsqaUBKTNV-1">
          <mxGeometry x="250" y="280" width="100" height="80" as="geometry" />
        </mxCell>
        <mxCell id="u-CSctKQ3wjPRd8Vw4VA-148" style="edgeStyle=orthogonalEdgeStyle;rounded=0;orthogonalLoop=1;jettySize=auto;html=1;exitX=0.5;exitY=1;exitDx=0;exitDy=0;entryX=0.5;entryY=0;entryDx=0;entryDy=0;" edge="1" parent="WIyWlLk6GJQsqaUBKTNV-1" source="u-CSctKQ3wjPRd8Vw4VA-145" target="u-CSctKQ3wjPRd8Vw4VA-53">
          <mxGeometry relative="1" as="geometry" />
        </mxCell>
        <mxCell id="u-CSctKQ3wjPRd8Vw4VA-145" value="save order in localstorage" style="rhombus;whiteSpace=wrap;html=1;rounded=1;glass=0;strokeWidth=1;shadow=0;" vertex="1" parent="WIyWlLk6GJQsqaUBKTNV-1">
          <mxGeometry x="240" y="580" width="120" height="80" as="geometry" />
        </mxCell>
        <mxCell id="u-CSctKQ3wjPRd8Vw4VA-151" value="clear&amp;nbsp;&lt;br&gt;localstorage" style="rhombus;whiteSpace=wrap;html=1;rounded=1;glass=0;strokeWidth=1;shadow=0;" vertex="1" parent="WIyWlLk6GJQsqaUBKTNV-1">
          <mxGeometry x="240" y="1052" width="120" height="80" as="geometry" />
        </mxCell>
      </root>
    </mxGraphModel>
  </diagram>
</mxfile>
